<svg preserveAspectRatio="none" width="100%" height="100%" overflow="visible" style="display: block;" viewBox="0 0 212.939 20" fill="none" xmlns="http://www.w3.org/2000/svg">
<g id="logo">
<path id="Vector" d="M0 19.8273V18.4008L13.6455 1.18173L13.8761 1.95984H0.201706V0.158691H15.7925V1.58519L2.17576 18.8042L1.93083 18.0117H16.1383V19.8128H0V19.8273Z" fill="white"/>
<path id="Vector_2" d="M17.0749 19.8272L26.0663 0.173014H28.1124L37.1037 19.8272H34.9135L26.6571 1.38338H27.4928L19.2363 19.8272H17.0749ZM20.6052 14.5822L21.2247 12.8963H32.6513L33.2709 14.5822H20.6052Z" fill="white"/>
<path id="Vector_3" d="M40.3458 19.8272V0.173014H48.3429C50.4466 0.173014 52.2766 0.590875 53.8617 1.42661C55.4467 2.26234 56.6715 3.41509 57.5504 4.89924C58.4294 6.38339 58.876 8.08366 58.876 10.0145C58.876 11.9453 58.4294 13.6456 57.5504 15.1297C56.6715 16.6139 55.4323 17.7666 53.8617 18.6024C52.2911 19.4381 50.4466 19.856 48.3429 19.856H40.3458V19.8272ZM42.4351 18.026H48.242C49.9855 18.026 51.4985 17.6802 52.781 17.003C54.0634 16.3257 55.0576 15.3747 55.7781 14.1644C56.4841 12.954 56.8443 11.5707 56.8443 10.0001C56.8443 8.42946 56.4841 7.01737 55.7781 5.8214C55.072 4.62544 54.0634 3.68885 52.781 2.99721C51.4985 2.30557 49.9855 1.97417 48.242 1.97417H42.4351V18.026Z" fill="white"/>
<path id="Vector_4" d="M72.1325 20C70.6484 20 69.2795 19.7551 68.0259 19.2507C66.7579 18.7608 65.6628 18.0548 64.7406 17.147C63.8184 16.2392 63.0979 15.1873 62.5792 13.977C62.0605 12.7666 61.8011 11.4409 61.8011 10C61.8011 8.55908 62.0605 7.23346 62.5792 6.02309C63.0979 4.81271 63.8184 3.76082 64.7406 2.85304C65.6628 1.94526 66.7579 1.23922 68.0115 0.749307C69.2651 0.259394 70.6484 0 72.1325 0C73.6167 0 74.9856 0.244985 76.2392 0.749307C77.4928 1.23922 78.5879 1.94525 79.51 2.83862C80.4322 3.73199 81.1527 4.79829 81.6714 6.00866C82.1902 7.21904 82.4495 8.55908 82.4495 10C82.4495 11.4409 82.1902 12.7666 81.6714 13.9914C81.1527 15.2018 80.4322 16.268 79.51 17.1614C78.5879 18.0548 77.4928 18.7608 76.2392 19.2507C74.9856 19.7551 73.6167 20 72.1325 20ZM72.1325 18.1412C73.3141 18.1412 74.4092 17.9395 75.4034 17.536C76.3976 17.1326 77.2766 16.5562 78.0115 15.8213C78.7463 15.0865 79.3227 14.2219 79.7406 13.2421C80.1585 12.2622 80.3602 11.1816 80.3602 10C80.3602 8.81844 80.1585 7.73775 79.7406 6.75793C79.3227 5.7781 78.7608 4.91358 78.0115 4.17871C77.2766 3.44384 76.3976 2.86747 75.4034 2.46401C74.4092 2.06055 73.3141 1.8588 72.1325 1.8588C70.951 1.8588 69.8559 2.06055 68.8472 2.46401C67.8386 2.86747 66.9596 3.44384 66.2103 4.17871C65.461 4.91358 64.8847 5.7781 64.4668 6.75793C64.049 7.73775 63.8472 8.81844 63.8472 10C63.8472 11.1816 64.049 12.2335 64.4668 13.2277C64.8847 14.2219 65.461 15.0865 66.2103 15.8213C66.9596 16.5562 67.8386 17.1326 68.8472 17.536C69.8703 17.9395 70.9654 18.1412 72.1325 18.1412Z" fill="white"/>
<path id="Vector_5" d="M87.1037 19.8272V0.173014H94.4668C96.1383 0.173014 97.5648 0.446786 98.7607 0.979927C99.9567 1.51307 100.879 2.27677 101.527 3.28541C102.176 4.29406 102.493 5.50441 102.493 6.91652C102.493 8.32862 102.176 9.49578 101.527 10.49C100.879 11.4843 99.9567 12.2623 98.7607 12.7955C97.5648 13.3286 96.1239 13.6024 94.4668 13.6024H88.2564L89.1786 12.6514V19.8416H87.1037V19.8272ZM89.1786 12.8099L88.2564 11.8301H94.4092C96.3688 11.8301 97.8674 11.3978 98.8905 10.5332C99.9135 9.66869 100.418 8.4583 100.418 6.91652C100.418 5.37473 99.9135 4.12113 98.8905 3.27099C97.8674 2.40643 96.3832 1.97417 94.4092 1.97417H88.2564L89.1786 0.994306V12.8099ZM100.533 19.8272L95.4754 12.6946H97.7233L102.81 19.8272H100.533Z" fill="white"/>
<path id="Vector_6" d="M115.994 20C114.51 20 113.141 19.7551 111.888 19.2507C110.62 18.7608 109.524 18.0548 108.602 17.147C107.68 16.2392 106.96 15.1873 106.441 13.977C105.922 12.7666 105.663 11.4409 105.663 10C105.663 8.55908 105.922 7.23346 106.441 6.02309C106.96 4.81271 107.68 3.76082 108.602 2.85304C109.524 1.94526 110.62 1.23922 111.873 0.749307C113.127 0.259394 114.51 0 115.994 0C117.478 0 118.847 0.244985 120.101 0.749307C121.354 1.23922 122.45 1.94525 123.372 2.83862C124.294 3.73199 125.014 4.79829 125.533 6.00866C126.052 7.21904 126.311 8.55908 126.311 10C126.311 11.4409 126.052 12.7666 125.533 13.9914C125.014 15.2018 124.294 16.268 123.372 17.1614C122.45 18.0548 121.354 18.7608 120.101 19.2507C118.847 19.7551 117.478 20 115.994 20ZM115.994 18.1412C117.176 18.1412 118.271 17.9395 119.265 17.536C120.259 17.1326 121.138 16.5562 121.873 15.8213C122.608 15.0865 123.184 14.2219 123.602 13.2421C124.02 12.2622 124.222 11.1816 124.222 10C124.222 8.81844 124.02 7.73775 123.602 6.75793C123.184 5.7781 122.622 4.91358 121.873 4.17871C121.138 3.44384 120.259 2.86747 119.265 2.46401C118.271 2.06055 117.176 1.8588 115.994 1.8588C114.813 1.8588 113.718 2.06055 112.709 2.46401C111.7 2.86747 110.821 3.44384 110.072 4.17871C109.323 4.91358 108.746 5.7781 108.328 6.75793C107.911 7.73775 107.709 8.81844 107.709 10C107.709 11.1816 107.911 12.2335 108.328 13.2277C108.746 14.2219 109.323 15.0865 110.072 15.8213C110.821 16.5562 111.7 17.1326 112.709 17.536C113.718 17.9395 114.813 18.1412 115.994 18.1412Z" fill="white"/>
<path id="Vector_7" d="M132.651 19.9999C131.542 19.9999 130.519 19.755 129.553 19.2651C128.588 18.7752 127.81 18.0835 127.233 17.1902L128.444 15.7925C128.991 16.5706 129.611 17.1757 130.331 17.5936C131.037 18.0115 131.83 18.2132 132.694 18.2132C135.13 18.2132 136.34 16.7723 136.34 13.8904V1.98841H129.15V0.187256H138.386V13.804C138.386 15.8789 137.911 17.4351 136.945 18.4582C135.965 19.4812 134.539 19.9999 132.651 19.9999Z" fill="white"/>
<path id="Vector_8" d="M144.611 19.8272V0.173014H146.326L159.885 17.2479H158.991V0.173014H161.037V19.8272H159.323L145.792 2.75223H146.686V19.8272H144.611Z" fill="white"/>
<path id="Vector_9" d="M164.294 19.8272L173.285 0.173014H175.331L184.323 19.8272H182.132L173.876 1.38338H174.712L166.455 19.8272H164.294ZM167.839 14.5822L168.458 12.8963H179.885L180.504 14.5822H167.839Z" fill="white"/>
<path id="Vector_10" d="M187.579 19.8272V0.173014H189.654V19.8272H187.579Z" fill="white"/>
<path id="Vector_11" d="M192.911 19.8272L201.902 0.173014H203.948L212.939 19.8272H210.749L202.493 1.38338H203.328L195.072 19.8272H192.911ZM196.455 14.5822L197.075 12.8963H208.501L209.121 14.5822H196.455Z" fill="white"/>
</g>
</svg>
