<svg width="213" height="20" viewBox="0 0 213 20" fill="none" xmlns="http://www.w3.org/2000/svg">
<path d="M0 19.8268V18.4003L13.6455 1.18125L13.8761 1.95936H0.201706V0.158203H15.7925V1.5847L2.17576 18.8037L1.93083 18.0112H16.1383V19.8124H0V19.8268Z" fill="white"/>
<path d="M17.0747 19.828L26.066 0.173828H28.1121L37.1035 19.828H34.9133L26.6568 1.3842H27.4925L19.2361 19.828H17.0747ZM20.6049 14.583L21.2245 12.8971H32.6511L33.2707 14.583H20.6049Z" fill="white"/>
<path d="M40.3457 19.828V0.173828H48.3428C50.4465 0.173828 52.2765 0.591688 53.8616 1.42742C55.4466 2.26316 56.6713 3.4159 57.5503 4.90005C58.4293 6.3842 58.8759 8.08447 58.8759 10.0153C58.8759 11.9461 58.4293 13.6464 57.5503 15.1306C56.6713 16.6147 55.4322 17.7675 53.8616 18.6032C52.291 19.4389 50.4465 19.8568 48.3428 19.8568H40.3457V19.828ZM42.435 18.0268H48.2419C49.9854 18.0268 51.4984 17.681 52.7809 17.0038C54.0633 16.3266 55.0575 15.3755 55.778 14.1652C56.484 12.9548 56.8442 11.5715 56.8442 10.0009C56.8442 8.43028 56.484 7.01818 55.778 5.82222C55.0719 4.62625 54.0633 3.68966 52.7809 2.99802C51.4984 2.30638 49.9854 1.97498 48.2419 1.97498H42.435V18.0268Z" fill="white"/>
<path d="M72.1327 20C70.6485 20 69.2797 19.7551 68.0261 19.2507C66.7581 18.7608 65.663 18.0548 64.7408 17.147C63.8186 16.2392 63.0981 15.1873 62.5794 13.977C62.0606 12.7666 61.8013 11.4409 61.8013 10C61.8013 8.55908 62.0606 7.23346 62.5794 6.02309C63.0981 4.81271 63.8186 3.76082 64.7408 2.85304C65.663 1.94526 66.758 1.23922 68.0116 0.749307C69.2652 0.259394 70.6485 0 72.1327 0C73.6168 0 74.9857 0.244985 76.2393 0.749307C77.4929 1.23922 78.588 1.94525 79.5102 2.83862C80.4324 3.73199 81.1529 4.79829 81.6716 6.00866C82.1903 7.21904 82.4497 8.55908 82.4497 10C82.4497 11.4409 82.1903 12.7666 81.6716 13.9914C81.1529 15.2018 80.4324 16.268 79.5102 17.1614C78.588 18.0548 77.4929 18.7608 76.2393 19.2507C74.9857 19.7551 73.6168 20 72.1327 20ZM72.1327 18.1412C73.3143 18.1412 74.4093 17.9395 75.4036 17.536C76.3978 17.1326 77.2768 16.5562 78.0116 15.8213C78.7465 15.0865 79.3229 14.2219 79.7408 13.2421C80.1586 12.2622 80.3603 11.1816 80.3603 10C80.3603 8.81844 80.1586 7.73775 79.7408 6.75793C79.3229 5.7781 78.7609 4.91358 78.0116 4.17871C77.2768 3.44384 76.3978 2.86747 75.4036 2.46401C74.4093 2.06055 73.3143 1.8588 72.1327 1.8588C70.9511 1.8588 69.856 2.06055 68.8474 2.46401C67.8388 2.86747 66.9598 3.44384 66.2105 4.17871C65.4612 4.91358 64.8849 5.7781 64.467 6.75793C64.0491 7.73775 63.8474 8.81844 63.8474 10C63.8474 11.1816 64.0491 12.2335 64.467 13.2277C64.8849 14.2219 65.4612 15.0865 66.2105 15.8213C66.9598 16.5562 67.8388 17.1326 68.8474 17.536C69.8705 17.9395 70.9656 18.1412 72.1327 18.1412Z" fill="white"/>
<path d="M87.1035 19.828V0.173828H94.4666C96.1381 0.173828 97.5646 0.4476 98.7606 0.980741C99.9565 1.51388 100.879 2.27758 101.527 3.28622C102.176 4.29487 102.493 5.50523 102.493 6.91733C102.493 8.32944 102.176 9.4966 101.527 10.4908C100.879 11.4851 99.9565 12.2631 98.7606 12.7963C97.5646 13.3294 96.1237 13.6032 94.4666 13.6032H88.2563L89.1784 12.6522V19.8424H87.1035V19.828ZM89.1784 12.8107L88.2563 11.8309H94.409C96.3687 11.8309 97.8672 11.3986 98.8903 10.5341C99.9133 9.66951 100.418 8.45912 100.418 6.91733C100.418 5.37555 99.9133 4.12194 98.8903 3.2718C97.8672 2.40725 96.3831 1.97498 94.409 1.97498H88.2563L89.1784 0.99512V12.8107ZM100.533 19.828L95.4753 12.6954H97.7231L102.81 19.828H100.533Z" fill="white"/>
<path d="M115.994 20C114.51 20 113.141 19.7551 111.887 19.2507C110.619 18.7608 109.524 18.0548 108.602 17.147C107.68 16.2392 106.959 15.1873 106.441 13.977C105.922 12.7666 105.663 11.4409 105.663 10C105.663 8.55908 105.922 7.23346 106.441 6.02309C106.959 4.81271 107.68 3.76082 108.602 2.85304C109.524 1.94526 110.619 1.23922 111.873 0.749307C113.127 0.259394 114.51 0 115.994 0C117.478 0 118.847 0.244985 120.101 0.749307C121.354 1.23922 122.449 1.94525 123.372 2.83862C124.294 3.73199 125.014 4.79829 125.533 6.00866C126.052 7.21904 126.311 8.55908 126.311 10C126.311 11.4409 126.052 12.7666 125.533 13.9914C125.014 15.2018 124.294 16.268 123.372 17.1614C122.449 18.0548 121.354 18.7608 120.101 19.2507C118.847 19.7551 117.478 20 115.994 20ZM115.994 18.1412C117.176 18.1412 118.271 17.9395 119.265 17.536C120.259 17.1326 121.138 16.5562 121.873 15.8213C122.608 15.0865 123.184 14.2219 123.602 13.2421C124.02 12.2622 124.222 11.1816 124.222 10C124.222 8.81844 124.02 7.73775 123.602 6.75793C123.184 5.7781 122.622 4.91358 121.873 4.17871C121.138 3.44384 120.259 2.86747 119.265 2.46401C118.271 2.06055 117.176 1.8588 115.994 1.8588C114.812 1.8588 113.717 2.06055 112.709 2.46401C111.7 2.86747 110.821 3.44384 110.072 4.17871C109.323 4.91358 108.746 5.7781 108.328 6.75793C107.91 7.73775 107.709 8.81844 107.709 10C107.709 11.1816 107.91 12.2335 108.328 13.2277C108.746 14.2219 109.323 15.0865 110.072 15.8213C110.821 16.5562 111.7 17.1326 112.709 17.536C113.717 17.9395 114.812 18.1412 115.994 18.1412Z" fill="white"/>
<path d="M132.651 20.0002C131.542 20.0002 130.519 19.7552 129.553 19.2653C128.588 18.7754 127.81 18.0838 127.233 17.1904L128.444 15.7927C128.991 16.5708 129.611 17.176 130.331 17.5939C131.037 18.0117 131.83 18.2134 132.695 18.2134C135.13 18.2134 136.34 16.7725 136.34 13.8907V1.98865H129.15V0.1875H138.386V13.8042C138.386 15.8792 137.911 17.4354 136.945 18.4584C135.965 19.4815 134.539 20.0002 132.651 20.0002Z" fill="white"/>
<path d="M144.611 19.828V0.173828H146.326L159.885 17.2487H158.991V0.173828H161.037V19.828H159.323L145.792 2.75305H146.686V19.828H144.611Z" fill="white"/>
<path d="M164.294 19.828L173.285 0.173828H175.331L184.323 19.828H182.133L173.876 1.3842H174.712L166.455 19.828H164.294ZM167.839 14.583L168.458 12.8971H179.885L180.504 14.583H167.839Z" fill="white"/>
<path d="M187.579 19.828V0.173828H189.654V19.828H187.579Z" fill="white"/>
<path d="M192.911 19.828L201.902 0.173828H203.948L212.939 19.828H210.749L202.493 1.3842H203.328L195.072 19.828H192.911ZM196.455 14.583L197.075 12.8971H208.501L209.121 14.583H196.455Z" fill="white"/>
</svg>
