<svg width="20" height="17" viewBox="0 0 20 17" fill="none" xmlns="http://www.w3.org/2000/svg">
<path fill-rule="evenodd" clip-rule="evenodd" d="M1.36937 7.33196C6.73698 4.94042 10.3103 3.3513 12.1046 2.58035C17.2115 0.393346 18.285 0.0157338 18.9751 0C19.1285 0 19.4659 0.0314679 19.6959 0.220274C19.8799 0.377612 19.9259 0.582152 19.9566 0.73949C19.9873 0.896828 20.018 1.22724 19.9873 1.47898C19.7112 4.4684 18.515 11.7217 17.9016 15.0573C17.6409 16.4733 17.1348 16.9453 16.644 16.9925C15.5705 17.0869 14.7577 16.2688 13.7302 15.5765C12.1046 14.4908 11.1998 13.8143 9.62015 12.7444C7.79516 11.5172 8.97604 10.8406 10.0189 9.73923C10.2949 9.45603 15.0031 5.05056 15.0951 4.65721C15.1104 4.61001 15.1104 4.4212 15.0031 4.3268C14.8957 4.2324 14.7424 4.26387 14.6197 4.29533C14.451 4.3268 11.8745 6.08899 6.85967 9.56616C6.12354 10.0854 5.46409 10.3371 4.86598 10.3214C4.20654 10.3057 2.94898 9.94377 1.99815 9.6291C0.847949 9.25148 -0.0722116 9.04695 0.00446848 8.38613C0.0504765 8.03998 0.510557 7.69384 1.36937 7.33196Z" fill="white"/>
</svg>
