<svg width="31" height="31" viewBox="0 0 31 31" fill="none" xmlns="http://www.w3.org/2000/svg">
<path d="M29.7358 16.136C30.1263 15.7454 30.1263 15.1123 29.7358 14.7217L28.6444 13.6304C28.2539 13.2399 27.6207 13.2399 27.2302 13.6304L18.4934 22.3672C17.8634 22.9972 16.7863 22.551 16.7863 21.6601L16.7863 1.00028C16.7863 0.447998 16.3386 0.000282288 15.7863 0.000282288H14.2423C13.69 0.000282288 13.2423 0.447998 13.2423 1.00028L13.2423 21.6601C13.2423 22.551 12.1652 22.9972 11.5352 22.3672L2.79841 13.6304C2.40788 13.2399 1.77472 13.2399 1.3842 13.6304L0.292837 14.7217C-0.0976887 15.1123 -0.0976887 15.7454 0.292835 16.136L14.3072 30.1503C14.6977 30.5408 15.3309 30.5408 15.7214 30.1503L29.7358 16.136Z" fill="white"/>
</svg>
