<svg width="20" height="21" viewBox="0 0 20 21" fill="none" xmlns="http://www.w3.org/2000/svg">
<path d="M19.4501 10.9937C19.8406 10.6031 19.8406 9.96997 19.4501 9.57944L19.194 9.32328C18.8034 8.93275 18.1703 8.93275 17.7797 9.32328L12.7599 14.3431C12.13 14.973 11.0528 14.5269 11.0528 13.636L11.0528 1.00084C11.0528 0.448553 10.6051 0.000839233 10.0528 0.000839233H9.6902C9.13791 0.000839233 8.6902 0.448555 8.6902 1.00084L8.6902 13.636C8.6902 14.5269 7.61306 14.973 6.98309 14.3431L1.96329 9.32328C1.57276 8.93275 0.939598 8.93275 0.549074 9.32328L0.292908 9.57944C-0.0976181 9.96997 -0.0976181 10.6031 0.292906 10.9937L9.16441 19.8652C9.55493 20.2557 10.1881 20.2557 10.5786 19.8652L19.4501 10.9937Z" fill="white"/>
</svg>
