<svg width="20" height="21" viewBox="0 0 20 21" fill="none" xmlns="http://www.w3.org/2000/svg">
<path d="M0.29289 9.16455C-0.097634 9.55507 -0.0976336 10.1882 0.292891 10.5788L0.549057 10.8349C0.939581 11.2254 1.57275 11.2254 1.96327 10.8349L6.98307 5.81512C7.61304 5.18516 8.69018 5.63132 8.69018 6.52223L8.69018 19.1574C8.69018 19.7097 9.1379 20.1574 9.69018 20.1574L10.0528 20.1574C10.6051 20.1574 11.0528 19.7096 11.0528 19.1574L11.0528 6.52223C11.0528 5.63132 12.13 5.18516 12.7599 5.81512L17.7797 10.8349C18.1702 11.2255 18.8034 11.2255 19.1939 10.8349L19.4501 10.5788C19.8406 10.1882 19.8406 9.55507 19.4501 9.16455L10.5786 0.293045C10.1881 -0.0974795 9.55492 -0.0974792 9.16439 0.293045L0.29289 9.16455Z" fill="white"/>
</svg>
