<svg width="20" height="21" viewBox="0 0 20 21" fill="none" xmlns="http://www.w3.org/2000/svg">
<path d="M19.4501 10.9937C19.8406 10.6031 19.8406 9.96997 19.4501 9.57944L19.1939 9.32328C18.8034 8.93275 18.1703 8.93275 17.7797 9.32328L12.7599 14.3431C12.13 14.973 11.0528 14.5269 11.0528 13.636L11.0528 1.00084C11.0528 0.448553 10.6051 0.000839233 10.0528 0.000839233H9.69019C9.1379 0.000839233 8.69019 0.448555 8.69019 1.00084L8.69019 13.636C8.69019 14.5269 7.61304 14.973 6.98308 14.3431L1.96328 9.32328C1.57275 8.93275 0.939587 8.93275 0.549063 9.32328L0.292896 9.57944C-0.0976295 9.96997 -0.0976295 10.6031 0.292894 10.9937L9.1644 19.8652C9.55492 20.2557 10.1881 20.2557 10.5786 19.8652L19.4501 10.9937Z" fill="white"/>
</svg>
